<svg width="75" height="73" viewBox="0 0 75 73" fill="none" xmlns="http://www.w3.org/2000/svg">
<path d="M0.14807 11.6456L16.38 17.6891L13.4979 0.610033L0.14807 11.6456ZM69.211 70.9968L70.0057 72.269C71.7048 71.2077 72.8926 69.1502 73.6737 66.7527C74.4726 64.3004 74.9282 61.244 74.9829 57.8499C75.0923 51.059 73.5998 42.7201 69.7874 34.7888C65.9686 26.8444 59.8057 19.2787 50.5671 14.1218C41.325 8.96291 29.1129 6.27488 13.2984 7.90832L13.4525 9.40039L13.6066 10.8924C28.9163 9.31114 40.4897 11.9323 49.1049 16.7413C57.7238 21.5523 63.4902 28.6132 67.0835 36.0885C70.6832 43.5771 72.0856 51.4514 71.9832 57.8016C71.9321 60.9781 71.5051 63.7243 70.8212 65.8234C70.1196 67.9772 69.2243 69.22 68.4164 69.7246L69.211 70.9968Z" fill="#1EC3C3" fill-opacity="0.46"/>
</svg>
